<?xml version="1.0" standalone="no"?>
<!DOCTYPE svg PUBLIC "-//W3C//DTD SVG 20010904//EN"
 "http://www.w3.org/TR/2001/REC-SVG-20010904/DTD/svg10.dtd">
<svg version="1.0" xmlns="http://www.w3.org/2000/svg"
 width="512.000000pt" height="512.000000pt" viewBox="0 0 512.000000 512.000000"
 preserveAspectRatio="xMidYMid meet">

<g transform="translate(0.000000,512.000000) scale(0.100000,-0.100000)"
fill="#000000" stroke="none">
<path d="M684 3342 c-1 -130 -48 -227 -234 -492 -72 -102 -150 -225 -175 -275
-118 -240 -111 -479 20 -632 40 -46 113 -108 121 -101 2 3 -5 25 -16 49 -55
122 1 281 199 559 166 234 234 354 260 462 25 104 10 221 -40 323 -30 61 -113
175 -127 175 -4 0 -7 -30 -8 -68z"/>
<path d="M1703 3205 c-62 -18 -117 -36 -123 -40 -6 -4 -10 -49 -10 -111 l0
-104 -80 0 -80 0 0 -100 0 -100 79 0 79 0 4 -287 c5 -333 12 -367 85 -440 58
-58 125 -77 252 -70 53 2 108 10 124 16 27 10 27 11 27 107 0 88 -2 95 -17 89
-10 -4 -43 -10 -73 -12 -50 -5 -60 -2 -88 22 -17 14 -36 43 -42 63 -5 20 -10
143 -10 275 l0 237 115 0 115 0 0 100 0 100 -115 0 -115 0 0 145 c0 80 -3 145
-7 144 -5 0 -58 -15 -120 -34z"/>
<path d="M4483 3203 l-123 -36 0 -108 0 -109 -80 0 -80 0 0 -100 0 -100 79 0
79 0 4 -292 c5 -335 10 -361 84 -434 59 -59 126 -78 253 -72 53 3 108 11 124
18 27 13 27 14 27 108 0 86 -2 93 -17 87 -10 -4 -43 -10 -73 -12 -50 -5 -60
-2 -88 22 -17 14 -36 43 -42 63 -5 20 -10 143 -10 275 l0 237 115 0 115 0 0
100 0 100 -115 0 -115 0 0 145 c0 80 -3 145 -7 144 -5 0 -63 -17 -130 -36z"/>
<path d="M2531 2950 c-172 -46 -291 -164 -336 -335 -20 -80 -20 -255 1 -326
50 -169 172 -286 334 -323 90 -21 237 -20 321 2 217 57 349 244 349 493 0 167
-41 281 -132 373 -122 122 -337 168 -537 116z m250 -191 c97 -33 148 -116 157
-255 9 -153 -30 -268 -109 -321 -31 -20 -56 -27 -112 -31 -99 -6 -149 10 -202
63 -61 61 -78 124 -73 264 3 90 8 114 31 157 29 57 86 110 132 123 44 13 137
13 176 0z"/>
<path d="M3640 2953 c-113 -31 -203 -99 -236 -179 -17 -40 -18 -158 -2 -205
31 -94 96 -138 332 -224 73 -27 116 -69 116 -114 0 -115 -217 -138 -403 -44
-27 13 -51 23 -52 21 -2 -2 -5 -51 -6 -108 l-2 -105 59 -19 c47 -16 89 -20
214 -20 137 -1 163 2 220 22 85 29 152 80 187 139 25 43 28 57 28 139 0 83 -2
94 -30 140 -38 61 -97 97 -257 160 -84 33 -125 54 -143 76 -47 56 -27 114 50
144 73 27 187 13 318 -41 16 -7 18 0 15 96 l-3 103 -50 14 c-83 22 -279 25
-355 5z"/>
<path d="M977 2810 c-32 -112 -106 -239 -286 -490 -158 -219 -200 -353 -145
-461 59 -117 246 -132 429 -36 155 83 252 252 243 424 -3 43 -6 53 -12 38 -78
-183 -154 -285 -214 -285 -31 0 -62 29 -62 59 0 8 34 70 75 138 92 155 117
217 123 311 5 81 -12 140 -73 262 -57 111 -58 112 -78 40z"/>
</g>
</svg>
